<svg height="512" viewBox="0 0 46 58" width="512" xmlns="http://www.w3.org/2000/svg"><g id="Page-1" fill="none" fill-rule="evenodd"><g id="011---Maple-Location" fill-rule="nonzero"><path id="Shape" d="m23.43 0h-.43c-12.7025492 0-23 10.2974508-23 23 0 18.8 18.96 32.5 22.45 34.83.1631096.1085068.3541111.1675437.55.17.196116-.0009959.3875269-.0601593.55-.17 3.26-2.18 19.9-14.22 22.19-31 1.88-13.78-8.4-26.57-22.31-26.83z" fill="#c03a2b"/><path id="Shape" d="m23 0v58c-.1958889-.0024563-.3868904-.0614932-.55-.17-3.49-2.33-22.45-16.03-22.45-34.83 0-12.7025492 10.2974508-23 23-23z" fill="#e64c3c"/><circle id="Oval" cx="23" cy="23" fill="#ecf0f1" r="19"/><path id="Shape" d="m29 46-6 6v-6z" fill="#e57e25"/><path id="Shape" d="m23 46v6l-6-6z" fill="#f29c1f"/><path id="Shape" d="m39.32 13.27c-7.3520497-6.09817068-18.1379672-5.5965068-24.892237 1.157763s-7.25593368 17.5401873-1.157763 24.892237c-6.80421388-4.0574517-10.37679985-11.9108746-8.96446561-19.7061009 1.41233425-7.7952263 7.51313841-13.89603046 15.30836471-15.30836471 7.7952263-1.41233424 15.6486492 2.16025173 19.7061009 8.96446561z" fill="#fff"/><path id="Shape" d="m36.89 23.9c-.61.49-1.21.99-1.81 1.49-1.67 1.39-3.35 2.79-5.03 4.18-.32.27-.34.38-.21.77.09.26.19.51.28.77.12.37.25.75.39 1.12.0351333.0907928.0182678.1934974-.0440564.2682864-.0623241.0747889-.1603037.1098985-.2559436.0917136l-6.21-1.37v5.78c0 .5522847-.4477153 1-1 1v-30c.0991911.00141988.1887085.05980078.23.15.82 1.67 1.75 3.55 2.25 4.54.0425797.1603938.1648311.2875102.323442.3363136s.3311761.0123997.456558-.0963136c.21-.12 1.01-.6 1.93-1.14.0895143-.0531592.2020098-.0482752.2865801.012442.0845703.0607171.1251673.1657456.1034199.267558-.45 2.34-.95 4.96-1.2 6.27-.08.43-.16.86-.24 1.28-.0616389.2335018.0407973.4793488.25.6.2090432.1020297.4607192.0483939.61-.13.04-.05.08-.09.11-.13.97-1.06 1.9366667-2.1233333 2.9-3.19.15-.17.18-.12.26.06.21.54.44 1.08.67 1.61.0315569.1423101.1243536.2634183.253554.330911.1292003.0674927.281613.074479.416446.019089.8-.18 1.6-.36 2.4-.53.38-.08.76-.17 1.15-.25.0942205-.0179529.1909318.015046.2545272.0868473.0635955.0718014.0846732.1717899.0554728.2631527l-1.22 3.88c-.0787403.1435274-.0883896.3149546-.0262534.4664117s.1893998.2667148.3462534.3135883c.43.2.85.41 1.28.61.18.08.21.13.04.27z" fill="#c03a2b"/><path id="Shape" d="m23 8v30c-.5522847 0-1-.4477153-1-1v-5.78l-6.21 1.37c-.0956399.0181849-.1936195-.0169247-.2559436-.0917136-.0623242-.074789-.0791897-.1774936-.0440564-.2682864.14-.37.27-.75.39-1.12.09-.26.19-.51.28-.77.13-.39.11-.5-.21-.77-1.68-1.39-3.36-2.79-5.03-4.18-.6-.5-1.2-1-1.81-1.49-.17-.14-.14-.19.04-.27.43-.2.85-.41 1.28-.61.1568536-.0468735.2841172-.1621312.3462534-.3135883s.0524869-.3228843-.0262534-.4664117l-1.22-3.88c-.02920036-.0913628-.0081227-.1913513.05547277-.2631527.06359548-.0718013.16030669-.1048002.25452723-.0868473.39.08.77.17 1.15.25.8.17 1.6.35 2.4.53.134833.05539.2872457.0484037.416446-.019089.1292004-.0674927.2219971-.1886009.253554-.330911.23-.53.46-1.07.67-1.61.08-.18.11-.23.26-.06.96 1.07 1.9266667 2.1333333 2.9 3.19.03.04.07.08.11.13.1492808.1783939.4009568.2320297.61.13.2092027-.1206512.3116389-.3664982.25-.6-.08-.42-.16-.85-.24-1.28-.25-1.31-.75-3.93-1.2-6.27-.0217474-.1018124.0188496-.2068409.1034199-.267558.0845703-.0607172.1970658-.0656012.2865801-.012442.92.54 1.72 1.02 1.93 1.14.1253819.1087133.2979471.145117.456558.0963136s.2808623-.1759198.323442-.3363136c.5-.99 1.43-2.87 2.25-4.54.0412915-.09019922.1308089-.14858012.23-.15z" fill="#e64c3c"/></g></g></svg>